# Blender v2.91.2 OBJ File: 'Korpus.blend'
# www.blender.org
mtllib vintverh.mtl
o vint_verh_Cube.002
v 0.050000 17.614586 0.050000
v -0.050000 17.614586 0.050000
v 0.050000 17.614586 -0.050000
v -0.050000 17.614586 -0.050000
v 0.050000 17.654585 0.050000
v -0.050000 17.654585 0.050000
v 0.050000 17.654585 -0.050000
v -0.050000 17.654585 -0.050000
v -0.050000 17.614586 -3.050000
v 0.050000 17.614586 -3.050000
v -0.050000 17.654585 -3.050000
v 0.050000 17.654585 -3.050000
v -3.050000 17.614586 0.050000
v -3.050000 17.614586 -0.050000
v -3.050000 17.654585 0.050000
v -3.050000 17.654585 -0.050000
v 0.050000 17.614586 3.050000
v -0.050000 17.614586 3.050000
v 0.050000 17.654585 3.050000
v -0.050000 17.654585 3.050000
v 3.050000 17.614586 -0.050000
v 3.050000 17.614586 0.050000
v 3.050000 17.654585 -0.050000
v 3.050000 17.654585 0.050000
vt 0.113434 0.788613
vt 0.113434 0.788613
vt 0.113434 0.788613
vt 0.110667 0.537969
vt 0.098167 0.550469
vt 0.098166 0.537969
vt 0.113434 0.788613
vt 0.125934 0.801113
vt 0.125934 0.801113
vt 0.125934 0.801113
vt 0.113434 0.801113
vt 0.113434 0.801113
vt 0.125934 0.788613
vt 0.113434 0.788613
vt 0.125934 0.788613
vt 0.125934 0.788613
vt 0.125934 0.788613
vt 0.125934 0.788613
vt 0.125934 0.788613
vt 0.125934 0.801113
vt 0.125934 0.801113
vt 0.113434 0.801113
vt 0.125934 0.801113
vt 0.113434 0.801113
vt 0.113434 0.801113
vt 0.113434 0.801113
vt 0.113434 0.788613
vt 0.119391 0.536292
vt 0.106891 0.523791
vt 0.106891 0.536292
vt 0.110667 0.550469
vt 0.119391 0.523792
vn 1.0000 0.0000 0.0000
vn 0.0000 1.0000 0.0000
vn 0.0000 0.0000 -1.0000
vn 0.0000 0.0000 1.0000
vn 0.0000 -1.0000 0.0000
vn -1.0000 0.0000 0.0000
usemtl Material
s off
f 3/1/1 12/2/1 7/3/1
f 8/4/2 5/5/2 7/6/2
f 7/3/3 21/7/3 3/1/3
f 6/8/4 13/9/4 2/10/4
f 6/8/2 19/11/2 5/12/2
f 9/13/3 12/2/3 10/14/3
f 7/3/2 11/15/2 8/16/2
f 4/17/5 10/14/5 3/1/5
f 8/16/6 9/13/6 4/17/6
f 13/9/6 16/18/6 14/19/6
f 2/10/5 14/19/5 4/17/5
f 4/17/3 16/18/3 8/16/3
f 8/16/2 15/20/2 6/8/2
f 2/10/6 20/21/6 6/8/6
f 1/22/5 18/23/5 2/10/5
f 5/12/1 17/24/1 1/22/1
f 21/7/1 24/25/1 22/26/1
f 5/12/2 23/27/2 7/3/2
f 1/22/4 24/25/4 5/12/4
f 3/1/5 22/26/5 1/22/5
f 17/24/4 20/21/4 18/23/4
f 2/28/5 3/29/5 1/30/5
f 3/1/1 10/14/1 12/2/1
f 8/4/2 6/31/2 5/5/2
f 7/3/3 23/27/3 21/7/3
f 6/8/4 15/20/4 13/9/4
f 6/8/2 20/21/2 19/11/2
f 9/13/3 11/15/3 12/2/3
f 7/3/2 12/2/2 11/15/2
f 4/17/5 9/13/5 10/14/5
f 8/16/6 11/15/6 9/13/6
f 13/9/6 15/20/6 16/18/6
f 2/10/5 13/9/5 14/19/5
f 4/17/3 14/19/3 16/18/3
f 8/16/2 16/18/2 15/20/2
f 2/10/6 18/23/6 20/21/6
f 1/22/5 17/24/5 18/23/5
f 5/12/1 19/11/1 17/24/1
f 21/7/1 23/27/1 24/25/1
f 5/12/2 24/25/2 23/27/2
f 1/22/4 22/26/4 24/25/4
f 3/1/5 21/7/5 22/26/5
f 17/24/4 19/11/4 20/21/4
f 2/28/5 4/32/5 3/29/5
